<?xml version="1.0" standalone="no"?>
<!DOCTYPE svg PUBLIC "-//W3C//DTD SVG 20010904//EN"
 "http://www.w3.org/TR/2001/REC-SVG-20010904/DTD/svg10.dtd">
<svg version="1.0" xmlns="http://www.w3.org/2000/svg"
 width="180.000000pt" height="180.000000pt" viewBox="0 0 180.000000 180.000000"
 preserveAspectRatio="xMidYMid meet">
<metadata>
Created by potrace 1.14, written by Peter Selinger 2001-2017
</metadata>
<g transform="translate(0.000000,180.000000) scale(0.100000,-0.100000)"
fill="#000000" stroke="none">
<path d="M888 1323 c-24 -21 -48 -42 -54 -48 -20 -19 -162 -146 -182 -163 -16
-14 -114 -103 -219 -198 -12 -12 -57 -52 -100 -90 -42 -38 -84 -76 -93 -84 -9
-8 -56 -51 -106 -95 -148 -132 -155 -144 -114 -185 30 -30 55 -25 108 22 25
24 66 61 91 83 57 52 52 48 156 140 50 44 92 82 95 85 3 3 50 46 105 95 55 50
102 92 105 95 4 4 95 86 214 193 11 9 23 17 26 17 3 0 16 -33 28 -72 130 -421
134 -428 185 -428 22 0 29 6 164 127 43 39 92 82 108 96 l31 25 117 -211 c162
-294 151 -279 189 -275 23 2 37 11 48 31 13 24 13 30 -1 55 -8 15 -31 56 -51
92 -20 36 -79 143 -132 239 -53 96 -96 177 -96 181 0 16 -53 41 -73 36 -19 -5
-97 -71 -240 -203 -21 -20 -39 -34 -41 -32 -2 2 -12 33 -24 69 -109 351 -134
420 -152 430 -31 17 -48 12 -92 -27z"/>
</g>
</svg>
