<svg width="0" height="0" >
  <symbol xmlns="http://www.w3.org/2000/svg" viewBox="0 -10 511.987 511" id="star">
    <path d="M511.267,197.258c-1.764-5.431-6.457-9.389-12.107-10.209l-158.723-23.065L269.452,20.157
			c-2.526-5.12-7.741-8.361-13.45-8.361c-5.71,0-10.924,3.241-13.451,8.361l-70.988,143.827l-158.72,23.065
			c-5.649,0.82-10.344,4.778-12.108,10.208c-1.765,5.431-0.293,11.392,3.796,15.377l114.848,111.954L92.271,482.671
			c-0.966,5.628,1.348,11.314,5.967,14.671c2.613,1.898,5.708,2.864,8.818,2.864c2.388,0,4.784-0.569,6.978-1.723l141.967-74.638
			l141.961,74.637c5.055,2.657,11.178,2.215,15.797-1.141c4.619-3.356,6.934-9.044,5.969-14.672l-27.117-158.081l114.861-111.955
			C511.56,208.649,513.033,202.688,511.267,197.258z"/>
  </symbol>
  <symbol xmlns="http://www.w3.org/2000/svg"  viewBox="0 -62 512.002 512" id="youtube">
    <path d="M334.809 170.992l-113.114-61.89c-6.504-3.559-14.191-3.426-20.566.351-6.379 3.781-10.184 10.461-10.184 17.875v122.719c0 7.379 3.782 14.047 10.118 17.832 3.308 1.976 6.976 2.969 10.652 2.969a20.74 20.74 0 009.848-2.504L334.68 207.52a20.772 20.772 0 0010.937-18.223 20.763 20.763 0 00-10.808-18.305zm-113.86 63.617v-91.718l84.54 46.257zm0 0"></path>
    <path d="M508.234 91.527l-.023-.234c-.434-4.121-4.75-40.777-22.57-59.422C465.043 9.941 441.69 7.277 430.46 6a135.45 135.45 0 01-2.543-.305l-.895-.093C359.336.68 257.113.008 256.09.004L256 0l-.09.004C254.887.008 152.664.68 84.367 5.602l-.902.093c-.727.098-1.528.188-2.399.29-11.101 1.28-34.203 3.949-54.859 26.671C9.234 51.102 4.328 86.973 3.824 91.004l-.058.523C3.613 93.242 0 134.067 0 175.051v38.312c0 40.985 3.613 81.809 3.766 83.528l.027.257c.434 4.055 4.746 40.04 22.484 58.692 19.368 21.195 43.856 24 57.028 25.508 2.082.238 3.875.441 5.097.656l1.184.164c39.082 3.719 161.617 5.55 166.812 5.625l.157.004.156-.004c1.023-.004 103.242-.676 170.93-5.598l.894-.093c.856-.114 1.817-.215 2.871-.325 11.04-1.172 34.016-3.605 54.387-26.02 16.973-18.448 21.883-54.32 22.383-58.347l.058-.523c.153-1.719 3.77-42.54 3.77-83.524v-38.312c-.004-40.985-3.617-81.805-3.77-83.524zm-26.238 121.836c0 37.934-3.312 77-3.625 80.586-1.273 9.88-6.45 32.574-14.719 41.563-12.75 14.027-25.847 15.418-35.41 16.43a164.16 164.16 0 00-3.195.359c-65.469 4.734-163.832 5.46-168.363 5.488-5.082-.074-125.825-1.922-163.715-5.441-1.942-.317-4.04-.559-6.25-.809-11.215-1.285-26.567-3.043-38.371-16.027l-.278-.297c-8.125-8.465-13.152-29.688-14.43-41.149-.238-2.71-3.636-42.238-3.636-80.703v-38.312c0-37.89 3.305-76.914 3.625-80.574 1.52-11.637 6.793-32.957 14.719-41.575 13.14-14.453 26.996-16.054 36.16-17.113.875-.102 1.691-.195 2.445-.293 66.422-4.758 165.492-5.465 169.047-5.492 3.555.023 102.59.734 168.422 5.492.808.102 1.691.203 2.64.313 9.426 1.074 23.672 2.699 36.747 16.644l.12.129c8.126 8.465 13.153 30.059 14.43 41.75.227 2.559 3.637 42.172 3.637 80.719zm0 0"></path>
  </symbol>
  <symbol xmlns="http://www.w3.org/2000/svg"  viewBox="0 0 512.012 512.012" id="dislike">
    <path d="M498.133 241.585c8.768-8.811 13.867-20.757 13.867-33.579 0-18.496-10.581-34.752-26.325-42.688 3.264-6.528 4.992-13.76 4.992-21.312 0-18.496-10.603-34.773-26.347-42.688 4.864-9.728 6.293-20.928 3.84-32.043-4.779-21.611-25.109-37.269-48.341-37.269H224c-14.827 0-38.72 4.8-56.469 13.931-7.424-20.544-27.136-35.264-50.197-35.264h-64C23.915 10.673 0 34.587 0 64.006v170.667c0 29.419 23.915 53.333 53.333 53.333H160c5.888 0 10.667-4.779 10.667-10.667v-4.075l2.539 1.28 61.461 133.12v72.341c0 3.243 1.472 6.315 3.989 8.341.683.512 16.533 12.992 38.677 12.992 24.683 0 64-39.061 64-85.333 0-29.184-10.453-65.515-16.981-85.333h131.776c28.715 0 53.141-21.248 55.659-48.363 1.386-15.21-3.691-29.823-13.654-40.724zm-22.805 8.597c10.475 6.464 16.32 18.027 15.189 30.187-1.493 16.235-16.597 28.971-34.389 28.971H309.333a10.726 10.726 0 00-8.789 4.608c-1.984 2.901-2.432 6.592-1.173 9.856.192.533 20.629 54.656 20.629 92.203 0 34.944-30.976 64-42.667 64-9.195 0-16.917-3.349-21.333-5.781v-68.885a10.55 10.55 0 00-1.003-4.48l-64-138.667a10.645 10.645 0 00-4.907-5.056l-21.333-10.667c-3.307-1.664-7.253-1.451-10.368.448-3.136 1.963-5.056 5.397-5.056 9.088v10.667h-96c-17.643 0-32-14.357-32-32V64.006c0-17.643 14.357-32 32-32h64c17.643 0 32 14.357 32 32 0 4.309 2.603 8.213 6.592 9.856a10.777 10.777 0 0011.627-2.304C177.621 61.467 206.677 53.339 224 53.339h195.819c13.312 0 24.875 8.619 27.499 20.565 2.112 9.536-.704 18.795-7.723 25.429a10.624 10.624 0 00-2.816 11.136 10.685 10.685 0 008.917 7.232c13.461 1.536 23.637 12.843 23.637 26.304 0 7.339-3.008 14.208-8.405 19.328a10.624 10.624 0 00-2.816 11.136 10.685 10.685 0 008.917 7.232c13.461 1.536 23.637 12.843 23.637 26.304 0 9.941-5.589 18.987-14.613 23.595a10.747 10.747 0 00-5.781 9.088 10.703 10.703 0 005.056 9.494z"></path>
    <path d="M160 53.339c-5.888 0-10.667 4.779-10.667 10.667v192c0 5.888 4.779 10.667 10.667 10.667s10.667-4.779 10.667-10.667v-192c0-5.888-4.779-10.667-10.667-10.667z"></path>
  </symbol>
  <symbol xmlns="http://www.w3.org/2000/svg" viewBox="0 0 24 24" id="facebook">
    <path d="M21.8 0H2.2C1 0 0 1 0 2.2v19.6C0 23 1 24 2.2 24H12V14H9v-3h3V8c0-2.5 1-4 4-4h3v3h-1.3c-.9 0-1.7.8-1.7 1.7V11h4l-.5 3H16v10h5.8c1.2 0 2.2-1 2.2-2.2V2.2C24 1 23 0 21.8 0z"></path>
  </symbol>
  <symbol xmlns="http://www.w3.org/2000/svg"  viewBox="0 0 511 511.9" id="instagram" >
    <path d="M510.95 150.5c-1.2-27.2-5.598-45.898-11.9-62.102-6.5-17.199-16.5-32.597-29.6-45.398-12.802-13-28.302-23.102-45.302-29.5-16.296-6.3-34.898-10.7-62.097-11.898C334.648.3 325.949 0 256.449 0s-78.199.3-105.5 1.5c-27.199 1.2-45.898 5.602-62.097 11.898-17.204 6.5-32.602 16.5-45.403 29.602-13 12.8-23.097 28.3-29.5 45.3-6.3 16.302-10.699 34.9-11.898 62.098C.75 177.801.449 186.5.449 256s.301 78.2 1.5 105.5c1.2 27.2 5.602 45.898 11.903 62.102 6.5 17.199 16.597 32.597 29.597 45.398 12.801 13 28.301 23.102 45.301 29.5 16.3 6.3 34.898 10.7 62.102 11.898 27.296 1.204 36 1.5 105.5 1.5s78.199-.296 105.5-1.5c27.199-1.199 45.898-5.597 62.097-11.898a130.934 130.934 0 0074.903-74.898c6.296-16.301 10.699-34.903 11.898-62.102 1.2-27.3 1.5-36 1.5-105.5s-.102-78.2-1.3-105.5zm-46.098 209c-1.102 25-5.301 38.5-8.801 47.5-8.602 22.3-26.301 40-48.602 48.602-9 3.5-22.597 7.699-47.5 8.796-27 1.204-35.097 1.5-103.398 1.5s-76.5-.296-103.403-1.5c-25-1.097-38.5-5.296-47.5-8.796C94.551 451.5 84.45 445 76.25 436.5c-8.5-8.3-15-18.3-19.102-29.398-3.5-9-7.699-22.602-8.796-47.5-1.204-27-1.5-35.102-1.5-103.403s.296-76.5 1.5-103.398c1.097-25 5.296-38.5 8.796-47.5C61.25 94.199 67.75 84.1 76.352 75.898c8.296-8.5 18.296-15 29.398-19.097 9-3.5 22.602-7.7 47.5-8.801 27-1.2 35.102-1.5 103.398-1.5 68.403 0 76.5.3 103.403 1.5 25 1.102 38.5 5.3 47.5 8.8 11.097 4.098 21.199 10.598 29.398 19.098 8.5 8.301 15 18.301 19.102 29.403 3.5 9 7.699 22.597 8.8 47.5 1.2 27 1.5 35.097 1.5 103.398s-.3 76.301-1.5 103.301zm0 0"></path>
    <path d="M256.45 124.5c-72.598 0-131.5 58.898-131.5 131.5s58.902 131.5 131.5 131.5c72.6 0 131.5-58.898 131.5-131.5s-58.9-131.5-131.5-131.5zm0 216.8c-47.098 0-85.302-38.198-85.302-85.3s38.204-85.3 85.301-85.3c47.102 0 85.301 38.198 85.301 85.3s-38.2 85.3-85.3 85.3zm167.402-222c0 16.954-13.747 30.7-30.704 30.7-16.953 0-30.699-13.746-30.699-30.7 0-16.956 13.746-30.698 30.7-30.698 16.956 0 30.703 13.742 30.703 30.699zm0 0"></path>
  </symbol>
  <symbol xmlns="http://www.w3.org/2000/svg"  viewBox="0 0 512 512" id="like">
    <path d="M512 304c0-12.821-5.099-24.768-13.888-33.579 9.963-10.901 15.04-25.515 13.653-40.725-2.496-27.115-26.923-48.363-55.637-48.363H324.352c6.528-19.819 16.981-56.149 16.981-85.333 0-46.272-39.317-85.333-64-85.333-22.144 0-37.995 12.48-38.656 12.992A10.672 10.672 0 00234.666 32v72.341L173.205 237.44l-2.539 1.301v-4.075c0-5.888-4.779-10.667-10.667-10.667H53.333C23.915 224 0 247.915 0 277.333V448c0 29.419 23.915 53.333 53.333 53.333h64c23.061 0 42.773-14.72 50.197-35.264C185.28 475.2 209.173 480 224 480h195.819c23.232 0 43.563-15.659 48.341-37.248 2.453-11.136 1.024-22.336-3.84-32.064 15.744-7.915 26.347-24.192 26.347-42.688 0-7.552-1.728-14.784-4.992-21.312C501.419 338.752 512 322.496 512 304zm-44.992 26.325a10.719 10.719 0 00-8.917 7.232 10.688 10.688 0 002.816 11.136c5.419 5.099 8.427 11.968 8.427 19.307 0 13.461-10.176 24.768-23.637 26.325a10.719 10.719 0 00-8.917 7.232 10.688 10.688 0 002.816 11.136c7.019 6.613 9.835 15.893 7.723 25.451-2.624 11.904-14.187 20.523-27.499 20.523H224c-17.323 0-46.379-8.128-56.448-18.219-3.051-3.029-7.659-3.925-11.627-2.304a10.667 10.667 0 00-6.592 9.856c0 17.643-14.357 32-32 32h-64c-17.643 0-32-14.357-32-32V277.333c0-17.643 14.357-32 32-32h96V256c0 3.691 1.92 7.125 5.077 9.088a10.902 10.902 0 0010.368.448l21.333-10.667a10.65 10.65 0 004.907-5.056l64-138.667c.64-1.408.981-2.944.981-4.48V37.781c4.438-2.453 12.14-5.781 21.334-5.781C289.024 32 320 61.056 320 96c0 37.547-20.437 91.669-20.629 92.203a10.739 10.739 0 001.173 9.856 10.728 10.728 0 008.789 4.608h146.795c17.792 0 32.896 12.736 34.389 28.992 1.131 12.16-4.715 23.723-15.189 30.187-3.264 2.005-5.205 5.632-5.056 9.493s2.368 7.317 5.781 9.088c9.024 4.587 14.613 13.632 14.613 23.573.001 13.461-10.175 24.768-23.658 26.325z"></path>
    <path d="M160 245.333c-5.888 0-10.667 4.779-10.667 10.667v192c0 5.888 4.779 10.667 10.667 10.667s10.667-4.779 10.667-10.667V256c0-5.888-4.779-10.667-10.667-10.667z"></path>
  </symbol>
  <symbol xmlns="http://www.w3.org/2000/svg" viewBox="0 0 512.005 512.005" id="magnifying-glass">
    <path d="M505.749 475.587l-145.6-145.6c28.203-34.837 45.184-79.104 45.184-127.317C405.333 90.926 314.41.003 202.666.003S0 90.925 0 202.669s90.923 202.667 202.667 202.667c48.213 0 92.48-16.981 127.317-45.184l145.6 145.6c4.16 4.16 9.621 6.251 15.083 6.251s10.923-2.091 15.083-6.251c8.341-8.341 8.341-21.824-.001-30.165zM202.667 362.669c-88.235 0-160-71.765-160-160s71.765-160 160-160 160 71.765 160 160-71.766 160-160 160z"></path>
  </symbol>
  <symbol xmlns="http://www.w3.org/2000/svg" viewBox="0 0 612.002 612.002" id="scroll-to-top">
    <path d="M592.639,358.376L423.706,189.439c-64.904-64.892-170.509-64.892-235.421,0.005L19.363,358.379
			c-25.817,25.817-25.817,67.674,0,93.489c25.817,25.817,67.679,25.819,93.491-0.002l168.92-168.927
			c13.354-13.357,35.092-13.361,48.444-0.005l168.93,168.932c12.91,12.907,29.825,19.365,46.747,19.365
			c16.915,0,33.835-6.455,46.747-19.365C618.456,426.051,618.456,384.193,592.639,358.376z"/>
  </symbol>
  <symbol xmlns="http://www.w3.org/2000/svg" viewBox="0 0 56.7 56.7" id="airbnb" >
    <path d="M50.3075,38.2082c-0.2454-0.5886-0.4908-1.2267-0.7362-1.7662c-0.3924-0.8831-0.785-1.7175-1.1285-2.5024l-0.0491-0.049  c-3.3855-7.3597-7.0164-14.8179-10.8434-22.1775l-0.1472-0.2946c-0.3926-0.7362-0.7854-1.5211-1.1776-2.3061  c-0.4909-0.883-0.9813-1.8156-1.7666-2.6988c-1.5699-1.9625-3.8269-3.0419-6.2311-3.0419c-2.4534,0-4.6614,1.0794-6.2807,2.9438  c-0.7358,0.8834-1.2757,1.8157-1.7662,2.6988c-0.3926,0.7849-0.7853,1.5701-1.1776,2.306l-0.1472,0.2946  c-3.7783,7.3596-7.4583,14.8179-10.8438,22.1775l-0.0491,0.0982c-0.3432,0.7853-0.7358,1.6193-1.1285,2.5023  c-0.245,0.5396-0.4905,1.1285-0.7358,1.7663c-0.6382,1.8157-0.8341,3.5327-0.589,5.2993c0.5399,3.68,2.9932,6.7711,6.3788,8.145  c1.2757,0.5395,2.6003,0.7849,3.9742,0.7849c0.3926,0,0.8835-0.049,1.2757-0.0982c1.6193-0.1963,3.2874-0.7358,4.9067-1.6684  c2.0116-1.1285,3.9254-2.7475,6.0843-5.1027c2.1589,2.3552,4.1214,3.9742,6.0844,5.1027c1.6189,0.9326,3.2873,1.4721,4.9063,1.6684  c0.3927,0.0491,0.8835,0.0982,1.2757,0.0982c1.374,0,2.7479-0.2454,3.9746-0.7849c3.4346-1.3739,5.8389-4.5141,6.3784-8.145  C51.1416,41.741,50.9452,40.024,50.3075,38.2082z M28.1787,40.7597c-2.6497-3.3364-4.3668-6.4765-4.9558-9.1262  c-0.2454-1.1285-0.2945-2.1097-0.1472-2.9929c0.0982-0.7849,0.3926-1.4721,0.7854-2.0607c0.9321-1.3249,2.502-2.1588,4.3177-2.1588  c1.8153,0,3.4347,0.7849,4.3177,2.1588c0.3927,0.5886,0.6872,1.2757,0.7854,2.0607c0.1469,0.8832,0.0978,1.9135-0.1473,2.9929  C32.5455,34.2341,30.8283,37.3742,28.1787,40.7597z M47.756,43.0658c-0.3436,2.5516-2.0607,4.7595-4.4649,5.7408  c-1.1777,0.4908-2.4534,0.6381-3.7291,0.4908c-1.2267-0.1473-2.4534-0.5399-3.7291-1.2757  c-1.7662-0.9813-3.5324-2.5024-5.5934-4.7594c3.2387-3.9746,5.2011-7.605,5.937-10.8434c0.3436-1.5212,0.3926-2.8951,0.2454-4.1709  c-0.1962-1.2267-0.6381-2.3552-1.3248-3.3364c-1.5212-2.208-4.0723-3.4837-6.9183-3.4837c-2.8456,0-5.3972,1.3249-6.9183,3.4837  c-0.6868,0.9813-1.1285,2.1097-1.3249,3.3364c-0.196,1.2758-0.1473,2.6988,0.2454,4.1709  c0.7359,3.2383,2.7479,6.9179,5.9371,10.8924c-2.0116,2.2571-3.8273,3.7782-5.5935,4.7594  c-1.2757,0.7359-2.5024,1.1285-3.7291,1.2758c-1.3249,0.1469-2.6006-0.0491-3.7291-0.4908  c-2.4043-0.9813-4.1213-3.1893-4.4649-5.7408c-0.1472-1.2266-0.049-2.4534,0.4418-3.8273c0.1473-0.4904,0.3923-0.9813,0.6377-1.5698  c0.3435-0.785,0.7362-1.6193,1.1285-2.4534l0.0491-0.0982c3.3854-7.3106,7.0165-14.7688,10.7947-22.0307l0.1473-0.2941  c0.3922-0.7362,0.7849-1.5212,1.1776-2.2571c0.3922-0.7853,0.834-1.5211,1.3735-2.1588C25.3821,7.2481,26.7556,6.61,28.2768,6.61  s2.8952,0.6381,3.9255,1.8156c0.5395,0.6377,0.9813,1.3736,1.374,2.1588c0.3922,0.7359,0.7849,1.5208,1.1775,2.2571l0.1469,0.2941  c3.7291,7.311,7.36,14.7687,10.7456,22.0797v0.0491c0.3923,0.7849,0.7359,1.6684,1.1285,2.4534  c0.2454,0.5885,0.4905,1.0794,0.6377,1.5698C47.8051,40.5635,47.9524,41.7902,47.756,43.0658z"/>
  </symbol>
  <symbol xmlns="http://www.w3.org/2000/svg" viewBox="0 0 512 512" id="tv">
    <path d="M496.964 73.72H15.036C6.732 73.72 0 80.452 0 88.756v276.892c0 8.304 6.732 15.036 15.036 15.036H202.98v27.523h-40.564c-8.304 0-15.036 6.732-15.036 15.036s6.732 15.036 15.036 15.036h187.167c8.304 0 15.036-6.732 15.036-15.036s-6.732-15.036-15.036-15.036H309.02v-27.523h187.944c8.304 0 15.036-6.732 15.036-15.036V88.756c0-8.304-6.732-15.036-15.036-15.036zM278.948 408.208h-45.896v-27.523h45.896zm202.98-57.595H30.072v-246.82h451.856z"></path>
  </symbol>
  <symbol xmlns="http://www.w3.org/2000/svg" viewBox="0 0 512.001 512.001" id="wifi">
    <circle cx="255.001" cy="433.5" r="33"></circle>
    <path d="M506.632 154.864C440.902 84.341 351.895 45.501 255.997 45.5 160.107 45.501 71.1 84.341 5.369 154.864c-7.53 8.08-7.085 20.736.995 28.267 8.081 7.53 20.736 7.086 28.267-.995C92.711 119.82 171.327 85.501 256.004 85.5c84.67.001 163.286 34.32 221.366 96.636a19.947 19.947 0 0014.635 6.364c4.883 0 9.778-1.778 13.632-5.369 8.08-7.532 8.526-20.187.995-28.267z"></path>
    <path d="M433.194 237.458c-48.587-48.954-111.516-75.913-177.196-75.911-65.695.001-128.625 26.961-177.197 75.913-7.78 7.841-7.731 20.504.11 28.284 7.841 7.78 20.504 7.731 28.284-.11 41.005-41.326 93.851-64.086 148.803-64.087 54.938-.002 107.784 22.759 148.804 64.089a19.94 19.94 0 0014.196 5.911 19.947 19.947 0 0014.09-5.805c7.839-7.781 7.887-20.444.106-28.284zm-80.043 82.834c-26.02-25.779-63.317-41.792-97.339-41.792h-1.471c-34.023 0-71.323 16.014-97.342 41.792-7.846 7.774-7.905 20.437-.131 28.284a19.94 19.94 0 0014.208 5.924 19.936 19.936 0 0014.075-5.792c18.523-18.352 45.68-30.208 69.192-30.208h1.466c23.509 0 50.668 11.857 69.189 30.208 7.846 7.773 20.511 7.717 28.284-.132 7.775-7.846 7.716-20.51-.131-28.284z"></path>
  </symbol>
  <symbol xmlns="http://www.w3.org/2000/svg" viewBox="0 0 503.607 503.607" id="air-conditioning">
    <path d="M478.426 75.541H25.18C10.911 75.541 0 86.452 0 100.721V268.59c0 14.269 10.911 25.18 25.18 25.18h453.246c14.269 0 25.18-10.911 25.18-25.18V100.721c.001-14.269-10.911-25.18-25.18-25.18zm8.394 193.049c0 5.036-3.357 8.393-8.393 8.393H25.18c-5.036 0-8.393-3.357-8.393-8.393V100.721c0-5.036 4.197-8.393 8.393-8.393h453.246c5.036 0 8.393 3.357 8.393 8.393V268.59z"></path>
    <path d="M218.229 151.082h67.148c5.036 0 8.393-3.357 8.393-8.393s-3.357-8.393-8.393-8.393h-67.148c-5.036 0-8.393 3.357-8.393 8.393s3.357 8.393 8.393 8.393zm243.41 92.328H41.967c-5.036 0-8.393 3.357-8.393 8.393s3.357 8.393 8.393 8.393h419.672c5.036 0 8.393-3.357 8.393-8.393s-3.357-8.393-8.393-8.393zm0-33.574H41.967c-5.036 0-8.393 3.357-8.393 8.393s3.357 8.393 8.393 8.393h419.672c5.036 0 8.393-3.357 8.393-8.393s-3.357-8.393-8.393-8.393zM256 353.364c-8.393-4.197-12.59-9.233-12.59-13.43s5.036-9.233 11.751-14.269c4.197-1.679 5.036-6.715 3.357-10.911-1.679-4.197-6.715-5.875-10.911-3.357-13.43 7.554-20.984 17.626-20.984 28.538 0 10.911 7.554 20.984 20.984 29.377 8.393 4.197 12.59 9.233 12.59 13.43s-5.036 9.233-12.59 13.429c-4.197 1.679-5.875 6.715-3.357 10.911 1.679 2.518 4.197 4.197 7.554 4.197 1.679 0 2.518 0 4.197-.839 13.43-7.554 20.984-17.626 20.984-28.538S269.43 360.079 256 353.364zm-92.328 16.787c-8.393-4.197-12.59-9.233-12.59-13.43s5.036-9.233 11.751-14.269c4.197-1.679 5.875-6.715 3.357-10.911-1.679-4.197-6.715-5.875-10.911-3.357-13.43 7.554-20.984 17.626-20.984 28.538 0 10.911 7.554 20.984 20.984 29.377 8.393 4.197 12.59 9.233 12.59 13.43s-5.036 9.233-12.59 13.43c-4.197 1.679-5.875 6.715-3.357 10.911 1.679 2.518 4.197 4.197 7.554 4.197 1.679 0 2.518 0 4.197-.839 13.43-7.554 20.984-17.626 20.984-28.538s-7.555-21.824-20.985-28.539zm184.656 0c-8.393-4.197-12.59-9.233-12.59-13.43s5.036-9.233 11.751-14.269c4.197-1.679 5.036-6.715 3.357-10.911-1.679-4.197-6.715-5.875-10.911-3.357-13.43 7.554-20.984 17.626-20.984 28.538 0 10.911 7.554 20.984 20.984 29.377 8.393 4.197 12.59 9.233 12.59 13.43s-5.036 9.233-12.59 13.43c-4.197 1.679-5.875 6.715-3.357 10.911 1.679 2.518 4.197 4.197 7.554 4.197 1.679 0 2.518 0 4.197-.839 13.43-7.554 20.984-17.626 20.984-28.538s-7.556-21.824-20.985-28.539z"></path>
  </symbol>
  <symbol xmlns="http://www.w3.org/2000/svg" viewBox="0 0 128 128" id="bathroom">
    <path d="M122.25 56.752H122v-41A15.767 15.767 0 00106.247 0H96.5a15.767 15.767 0 00-15.75 15.75v8.432h-2.145a1.755 1.755 0 00-1.365.654L76 26.386a21.833 21.833 0 00-4.713 11.89A5.755 5.755 0 0066.031 44v3.545a1.749 1.749 0 001.75 1.75h37.432a1.749 1.749 0 001.75-1.75V44a5.755 5.755 0 00-5.255-5.725A21.827 21.827 0 0097 26.387l-1.241-1.548a1.75 1.75 0 00-1.365-.655h-2.147v-8.432A4.254 4.254 0 0196.5 11.5h9.75a4.254 4.254 0 014.25 4.25v41H57.281v-.063a9.057 9.057 0 00-15.72-6.14 8.218 8.218 0 00-4.861-1.284 12.361 12.361 0 00-23.3-.009 8.259 8.259 0 00-7.988 7.515A5.752 5.752 0 000 62.5v3a5.756 5.756 0 005.75 5.75H6v20a25.776 25.776 0 0014.28 23.05l-1.826 4.309a6.757 6.757 0 0012.446 5.269L33.81 117h60.38l2.912 6.877a6.758 6.758 0 0012.444-5.273l-1.826-4.304A25.776 25.776 0 00122 91.252v-20h.25A5.756 5.756 0 00128 65.5v-3a5.756 5.756 0 00-5.75-5.748zM103.463 44v1.8H69.531V44a2.253 2.253 0 012.25-2.25h29.432a2.253 2.253 0 012.25 2.25zm-9.2-15.424a18.322 18.322 0 013.937 9.675H74.8a18.322 18.322 0 013.932-9.674l.717-.893h14.1zM106.247 8H96.5a7.759 7.759 0 00-7.75 7.75v8.432h-4.5v-8.43A12.263 12.263 0 0196.5 3.5h9.75a12.263 12.263 0 0112.25 12.25v41H114v-41A7.759 7.759 0 00106.247 8zM13.625 52.751a4.807 4.807 0 01.78.071 1.747 1.747 0 001.991-1.35 8.862 8.862 0 0117.331.113 1.749 1.749 0 002.167 1.337 4.623 4.623 0 014.7 1.338 1.749 1.749 0 002.8-.326 5.559 5.559 0 0110.39 2.755v.063H8.934a4.757 4.757 0 014.691-4.001zm14.05 69.762a3.251 3.251 0 01-3 1.985 3.255 3.255 0 01-3-4.526l1.831-4.322c.084.029.171.05.256.078.335.11.674.211 1.016.307.146.041.291.086.437.125.469.123.942.234 1.421.33.138.028.277.049.415.075a25.721 25.721 0 001.615.246q.522.063 1.05.1c.105.009.21.024.315.031zm76.817-6.863l1.831 4.322a3.255 3.255 0 01-3 4.526 3.253 3.253 0 01-3-1.985l-2.358-5.568c.105-.007.208-.022.312-.03q.534-.042 1.062-.105a25.032 25.032 0 001.623-.248c.132-.025.264-.044.395-.071q.718-.145 1.423-.331c.148-.039.294-.084.441-.125q.51-.144 1.013-.307c.087-.028.173-.049.258-.078zm14.008-24.4a22.282 22.282 0 01-13.879 20.61c-.6.246-1.217.469-1.838.66-.069.021-.141.039-.211.06-.631.187-1.268.35-1.913.479-.06.013-.12.021-.18.033-.664.128-1.333.23-2.009.3-.028 0-.057 0-.085.006-.706.067-1.418.1-2.135.1h-64.5c-.706 0-1.406-.037-2.1-.1l-.129-.01a21.799 21.799 0 01-1.977-.293c-.069-.013-.139-.023-.208-.037a22.074 22.074 0 01-1.9-.476c-.074-.022-.148-.041-.221-.063a22.328 22.328 0 01-1.836-.659A22.282 22.282 0 019.5 91.252v-20h109zm6-25.75a2.253 2.253 0 01-2.25 2.25H5.75A2.253 2.253 0 013.5 65.5v-3a2.253 2.253 0 012.25-2.25h116.5a2.253 2.253 0 012.25 2.25z"></path>
  </symbol>
  <symbol xmlns="http://www.w3.org/2000/svg" viewBox="0 0 388.4 388.4" id="bike">
    <path d="M307.6 153.199c-11.2 0-22 2.4-32 6.4l-13.6-26.4v-42c0-2.4-1.6-4.8-4-5.6l-32-12c-3.2-1.2-6.4.4-7.6 3.6-1.2 3.2.4 6.4 3.6 7.6l28.4 10.4v34H133.2v-11.6h14.4c3.2 0 6-2.8 6-6s-2.8-6-6-6h-37.2c-3.2 0-6 2.8-6 6s2.8 6 6 6h10.8v16.4l-11.6 25.2c-8.8-3.6-18.8-5.6-28.8-5.6-44.4 0-80.8 36-80.8 80.8s36 80.8 80.8 80.8c42.4 0 77.2-33.2 80.4-74.8h26c2 0 3.6-.8 4.8-2.4l62.8-90.8 10 18.8c-22.8 13.6-38 39.2-38 68 0 44.4 36 80.8 80.8 80.8s80.8-36 80.8-80.8-36-80.8-80.8-80.8zm-226.8 149.6c-38 0-68.8-30.8-68.8-68.8s30.8-68.8 68.8-68.8c8.4 0 16.4 1.6 23.6 4.4l-29.2 62v.4c-.4.8-.4 1.2-.4 2v.4c0 .8 0 1.2.4 2v.4c0 .4 0 .4.4.8 0 .4.4.4.8.8v.4c.4.4 1.2.8 1.6 1.2h.4c.8.4 1.2.4 2 .4h68.4c-2.8 34.8-32 62.4-68 62.4zm9.2-74.8l25.2-53.2c18.8 10.8 32 30.4 34 53.2H90zm94 0h-23.2c-2-27.6-18-51.2-40.8-64.4l10.8-22.8H244l-60 87.2zm123.2 74.8c-38 0-68.8-30.8-68.8-68.8 0-24.4 12.8-45.6 32-58l31.6 60.8c1.2 2 3.2 3.2 5.2 3.2.8 0 2-.4 2.8-.8 2.8-1.6 4-5.2 2.4-8l-31.6-60.8c8.4-3.2 17.2-5.2 26.4-5.2 38 0 68.8 30.8 68.8 68.8s-30.8 68.8-68.8 68.8z"></path>
  </symbol>
  <symbol xmlns="http://www.w3.org/2000/svg" viewBox="0 0 480 480" id="kitchen">
    <path d="M472 96H328a8 8 0 00-8 8v184H144v-24a8 8 0 00-8-8h-24v16h16v16H96v-32H80v32H48v-16h16v-16H40a8 8 0 00-8 8v24H8a8 8 0 00-8 8v176a8 8 0 008 8h464a8 8 0 008-8V104a8 8 0 00-8-8zm-136 16h128v96H336zm-16 224H176v-32h144zM16 304h144v32H16zm0 48h144v112H16zm160 0h64v112h-64zm80 0h64v112h-64zm80 112V224h128v240zm0 0"></path>
    <path d="M352 144h16v32h-16zm0 112h16v32h-16zM48 320a8 8 0 11-16 0 8 8 0 0116 0zm32 0a8 8 0 11-16 0 8 8 0 0116 0zm32 0a8 8 0 11-16 0 8 8 0 0116 0zm32 0a8 8 0 11-16 0 8 8 0 0116 0zM8 152h160a8 8 0 008-8v-24a8.001 8.001 0 00-2.344-5.656l-32-32A8.001 8.001 0 00136 80h-8V8a8 8 0 00-8-8H56a8 8 0 00-8 8v72h-8a8.001 8.001 0 00-5.656 2.344l-32 32A8.001 8.001 0 000 120v24a8 8 0 008 8zM64 16h48v64H64zM16 123.313L43.313 96h89.374L160 123.313V136H16zM136 368H40a8 8 0 00-8 8v64a8 8 0 008 8h96a8 8 0 008-8v-64a8 8 0 00-8-8zm-8 64H48v-48h80zm104-120h32v16h-32zm-24 80h16v32h-16zm64 0h16v32h-16zm-80-192h48a8 8 0 008-8v-8c-.055-14.547-9.914-27.227-24-30.863V0h-16v153.137c-14.086 3.636-23.945 16.316-24 30.863v8a8 8 0 008 8zm24-32c8.836 0 16 7.164 16 16h-32c0-8.836 7.164-16 16-16zm0 0"></path>
    <path d="M248 136h48a8 8 0 008-8v-8c-.055-14.547-9.914-27.227-24-30.863V0h-16v89.137c-14.086 3.636-23.945 16.316-24 30.863v8a8 8 0 008 8zm24-32c8.836 0 16 7.164 16 16h-32c0-8.836 7.164-16 16-16zm0 0"></path>
  </symbol>
  <symbol xmlns="http://www.w3.org/2000/svg" viewBox="0 0 512 512" id="parking">
    <path d="M136 288H48a32.036 32.036 0 01-32-32V48a32.036 32.036 0 0132-32h208a32.036 32.036 0 0132 32v136h-16V48a16.019 16.019 0 00-16-16H48a16.019 16.019 0 00-16 16v208a16.019 16.019 0 0016 16h88z"></path>
    <path d="M120 256H72a8 8 0 01-8-8V56a8 8 0 018-8h96a72 72 0 010 144h-40v56a8 8 0 01-8 8zm-40-16h32v-56a8 8 0 018-8h48a56 56 0 000-112H80zm88-96h-48a8 8 0 01-8-8v-32a8 8 0 018-8h48a24 24 0 010 48zm-40-16h40a8 8 0 000-16h-40zm357.657 202.343a35.057 35.057 0 00-23.882-10.317l-32.716-98.147A31.965 31.965 0 00398.7 200H209.3a31.965 31.965 0 00-30.359 21.879l-32.716 98.147A35.3 35.3 0 00112 355.313V416a32.036 32.036 0 0032 32h56v32h-48v-16h-16v16a16.019 16.019 0 0016 16h48a16.019 16.019 0 0016-16v-32h176v32a16.019 16.019 0 0016 16h48a16.019 16.019 0 0016-16v-33.013A32.057 32.057 0 00496 416v-60.687a35.082 35.082 0 00-10.343-24.97zM209.3 216h189.4a15.986 15.986 0 0115.181 10.941l1.686 5.059H192.433l1.686-5.059A15.986 15.986 0 01209.3 216zm-22.2 32h233.8l24 72H163.1zM456 480h-48v-32h48l.008 32zm24-64a16.019 16.019 0 01-16 16H144a16.019 16.019 0 01-16-16v-60.687A19.314 19.314 0 01147.313 336h313.374A19.314 19.314 0 01480 355.313z"></path>
    <path d="M176 352a32 32 0 1032 32 32.036 32.036 0 00-32-32zm0 48a16 16 0 1116-16 16.019 16.019 0 01-16 16zm256-48a32 32 0 1032 32 32.036 32.036 0 00-32-32zm0 48a16 16 0 1116-16 16.019 16.019 0 01-16 16zm-208-40h160v16H224zm0 32h160v16H224z"></path>
  </symbol>
  <symbol xmlns="http://www.w3.org/2000/svg" viewBox="0 0 512 512" id="restaurant">
    <path d="M456.354 334.396a28.223 28.223 0 00-1.536-2.321c-5.171-7.228-12.86-12.006-21.632-13.449a33.072 33.072 0 00-24.781 5.786l-95.403 68.122h-99.669c-4.702 0-8.533-3.823-8.533-8.533s3.831-8.533 8.533-8.533H268.8c16.469 0 29.867-13.397 29.867-29.867 0-.094-.009-.879-.017-.964-.529-16.461-14.413-29.295-30.532-28.902h-111.01a42.822 42.822 0 00-26.974 9.907l-41.728 34.731a8.558 8.558 0 00-3.072 6.562v102.4a8.53 8.53 0 008.533 8.533h211.721a59.872 59.872 0 0038.025-13.73l103.45-85.478c14.053-10.012 18.132-29.45 9.291-44.264zm-19.669 30.737L332.74 450.987a42.82 42.82 0 01-27.162 9.813H102.4v-89.865l38.664-32.188c4.54-3.78 10.283-5.897 16.12-5.948l111.206-.008c7.074-.009 12.979 5.342 13.21 12.809 0 7.057-5.743 12.8-12.8 12.8h-55.467c-14.114 0-25.6 11.486-25.6 25.6s11.486 25.6 25.6 25.6h102.4a8.646 8.646 0 004.975-1.587l97.638-69.726c3.516-2.526 7.791-3.507 12.075-2.825 4.275.708 8.013 3.029 10.581 6.613.256.35.486.708.708 1.075 4.319 7.229 2.313 16.726-5.025 21.983z"></path>
    <path d="M93.611 349.867H0v17.067h85.077v128H0V512h93.611a8.53 8.53 0 008.533-8.533V358.4a8.53 8.53 0 00-8.533-8.533z"></path>
    <path d="M42.667 426.667c-14.114 0-25.6 11.486-25.6 25.6s11.486 25.6 25.6 25.6 25.6-11.486 25.6-25.6-11.486-25.6-25.6-25.6zm0 34.133c-4.702 0-8.533-3.823-8.533-8.533 0-4.71 3.831-8.533 8.533-8.533s8.533 3.823 8.533 8.533c0 4.71-3.831 8.533-8.533 8.533zm460.8-196.267H8.533A8.53 8.53 0 000 273.066c0 32.93 26.795 59.733 59.733 59.733h392.533c32.93 0 59.733-26.803 59.733-59.733a8.524 8.524 0 00-8.532-8.533zm-51.2 51.2H59.733c-20.608 0-37.845-14.686-41.805-34.133h476.143c-3.959 19.447-21.196 34.133-41.804 34.133z"></path>
    <path d="M256 42.667c-122.334 0-221.867 99.533-221.867 221.867v8.533a8.53 8.53 0 008.533 8.533h426.667a8.525 8.525 0 008.533-8.533v-8.533C477.867 142.199 378.342 42.667 256 42.667zM51.2 264.533c0-112.922 91.878-204.8 204.8-204.8s204.8 91.878 204.8 204.8H51.2z"></path>
    <path d="M115.644 140.006a190.753 190.753 0 00-16.435 21.342l14.225 9.429a174.385 174.385 0 0114.967-19.439l-12.757-11.332zM256 76.8c-47.923.026-93.551 18.133-128.469 50.961l11.691 12.433c31.744-29.85 73.224-46.302 116.787-46.327L256 76.8zM230.4 0h51.2v17.067h-51.2z"></path>
    <path d="M247.467 8.533h17.067V51.2h-17.067z"></path>
  </symbol>
  <symbol xmlns="http://www.w3.org/2000/svg" viewBox="0 0 144.083 144" id="trails">
    <path d="M128.793 64.202L107.11 39.967c-1.137-1.273-3.334-1.273-4.471 0l-8.914 9.962-30.599-34.195c-1.139-1.271-3.334-1.272-4.471.001L15.289 64.2a3 3 0 002.235 5l21.593.001v1.76a3 3 0 003 3h11.72v22.675h4.719c-9.371.254-19.513.137-28.355.033-5.255-.062-10.218-.119-14.957-.119v6c4.704 0 9.65.058 14.887.118 33.304.392 55.658.124 62.674-6.811 1.529-1.512 2.338-3.366 2.338-5.362 0-4.047-3.721-5.715-6.709-7.056-3.461-1.552-5.152-2.524-5.26-4.484 1.336-2.004 9.563-4.524 20.785-6.657-1.766 1.704-2.883 3.649-2.883 5.846 0 4.508 4.836 5.491 9.514 6.442 7.141 1.452 11.82 2.802 11.82 8.129 0 4.465-1.789 8.356-5.473 11.896-22.154 21.294-99.634 18.473-100.416 18.44l-.238 5.996c.689.027 4.647.173 10.695.173 22.772 0 75.158-2.065 94.115-20.282 4.855-4.665 7.316-10.123 7.316-16.223 0-10.628-10.406-12.744-16.625-14.009-1.463-.297-3.545-.721-4.559-1.136 1.207-2.464 9.57-6.291 18.496-8.369h.838a2.999 2.999 0 002.234-4.999zM45.117 67.96v-6.505h24.846l2.498 3.254-2.497 3.251H45.117zm32.05 10.79c0 6.213 5.303 8.59 8.811 10.163 1.029.462 2.717 1.219 3.16 1.703-.023.25-.133.559-.553.974-3.359 3.322-15.123 4.583-28.748 5.008V73.96h11.605a3 3 0 002.379-1.173l2.754-3.586h14.066c-11.58 3.282-13.474 6.505-13.474 9.549zm1.66-15.549a2.913 2.913 0 00-.205-.318l-4.801-6.254a3 3 0 00-2.379-1.173H59.836v-3.307h-6v3.307h-11.72a3 3 0 00-3 3v4.745L24.234 63.2l36.657-40.966 30.6 34.195c1.139 1.271 3.334 1.272 4.471-.001l8.914-9.962 14.973 16.735H78.827z"></path>
  </symbol>
  <symbol xmlns="http://www.w3.org/2000/svg" viewBox="0 0 383.852 383.852" id="dark-theme">
    <path d="M382.667 248.54c-2.528-6.168-8.48-9.896-14.776-9.904-.032 0-.064-.008-.096-.008-.104 0-.192.04-.296.048a15.84 15.84 0 00-3.688.56c-.456.12-.888.24-1.328.392-.224.08-.456.112-.688.2-20.072 8.248-41.392 12.432-63.384 12.432-91.976 0-166.808-74.832-166.808-166.808 0-21.992 4.176-43.312 12.432-63.384.12-.28.16-.576.256-.864.12-.352.224-.704.32-1.072.36-1.32.584-2.648.6-3.976 0-.056.024-.112.024-.176 0-.016-.008-.04-.008-.056 0-.96-.112-1.904-.288-2.832-.04-.2-.072-.4-.112-.6-.208-.92-.472-1.832-.84-2.696-.144-.336-.344-.624-.504-.944-1.672-3.336-4.44-6.144-8.168-7.672-4.36-1.784-9.024-1.464-12.96.416-.04.016-.088.024-.128.048-23.912 9.832-45.496 24.264-64.152 42.92-77.432 77.528-77.432 203.672.008 281.216 38.768 38.72 89.68 58.072 140.6 58.072s101.84-19.36 140.616-58.08c18.592-18.6 33-40.112 42.832-63.944.048-.088.064-.192.104-.288.456-.952.824-1.944 1.088-2.976.016-.08.048-.152.072-.232.76-3.152.6-6.56-.728-9.792zm-65.976 54.608c-65.064 64.968-170.92 64.968-235.968 0-64.976-65.056-64.976-170.912-.008-235.96 6.944-6.944 14.448-13.064 22.312-18.576a200.158 200.158 0 00-3.424 36.848c0 109.624 89.184 198.808 198.808 198.808 12.48 0 24.784-1.168 36.848-3.424-5.52 7.856-11.624 15.36-18.568 22.304z"></path>
  </symbol>
  <symbol xmlns="http://www.w3.org/2000/svg" viewBox="0 0 219.786 219.786" id="light-theme">
    <path d="M109.881 183.46a7.5 7.5 0 00-7.5 7.5v21.324a7.5 7.5 0 0015 0V190.96a7.5 7.5 0 00-7.5-7.5zm0-147.131a7.5 7.5 0 007.5-7.5V7.503a7.5 7.5 0 00-15 0v21.326a7.5 7.5 0 007.5 7.5zm-62.612 125.58l-15.084 15.076a7.5 7.5 0 005.302 12.804 7.48 7.48 0 005.302-2.195l15.084-15.076a7.5 7.5 0 00.003-10.606 7.501 7.501 0 00-10.607-.003zM167.208 60.067a7.479 7.479 0 005.303-2.196l15.082-15.076a7.501 7.501 0 00.002-10.607 7.499 7.499 0 00-10.607-.001l-15.082 15.076a7.5 7.5 0 005.302 12.804zM36.324 109.895a7.5 7.5 0 00-7.5-7.5H7.5a7.5 7.5 0 000 15h21.324a7.5 7.5 0 007.5-7.5zm175.962-7.5h-21.334a7.5 7.5 0 00-7.5 7.5 7.5 7.5 0 007.5 7.5h21.334a7.5 7.5 0 000-15zM47.267 57.871a7.477 7.477 0 005.303 2.196 7.5 7.5 0 005.303-12.803L42.797 32.188a7.5 7.5 0 00-10.606 0 7.5 7.5 0 000 10.606l15.076 15.077zm125.253 104.04a7.5 7.5 0 00-10.608 10.605l15.074 15.076a7.476 7.476 0 005.304 2.197 7.498 7.498 0 005.304-12.802l-15.074-15.076zM109.889 51.518c-32.187 0-58.373 26.188-58.373 58.377 0 32.188 26.186 58.375 58.373 58.375 32.19 0 58.378-26.187 58.378-58.375 0-32.189-26.189-58.377-58.378-58.377zm0 101.752c-23.916 0-43.373-19.458-43.373-43.375 0-23.918 19.457-43.377 43.373-43.377 23.919 0 43.378 19.459 43.378 43.377 0 23.917-19.459 43.375-43.378 43.375z"></path>
  </symbol>
</svg>