<svg width="0" height="0" >
  <symbol xmlns="http://www.w3.org/2000/svg" viewBox="0 -10 511.987 511" id="star">
    <path d="M511.267,197.258c-1.764-5.431-6.457-9.389-12.107-10.209l-158.723-23.065L269.452,20.157
			c-2.526-5.12-7.741-8.361-13.45-8.361c-5.71,0-10.924,3.241-13.451,8.361l-70.988,143.827l-158.72,23.065
			c-5.649,0.82-10.344,4.778-12.108,10.208c-1.765,5.431-0.293,11.392,3.796,15.377l114.848,111.954L92.271,482.671
			c-0.966,5.628,1.348,11.314,5.967,14.671c2.613,1.898,5.708,2.864,8.818,2.864c2.388,0,4.784-0.569,6.978-1.723l141.967-74.638
			l141.961,74.637c5.055,2.657,11.178,2.215,15.797-1.141c4.619-3.356,6.934-9.044,5.969-14.672l-27.117-158.081l114.861-111.955
			C511.56,208.649,513.033,202.688,511.267,197.258z"/>
  </symbol>
  <symbol xmlns="http://www.w3.org/2000/svg"  viewBox="0 -62 512.002 512" id="youtube">
    <path d="M334.809 170.992l-113.114-61.89c-6.504-3.559-14.191-3.426-20.566.351-6.379 3.781-10.184 10.461-10.184 17.875v122.719c0 7.379 3.782 14.047 10.118 17.832 3.308 1.976 6.976 2.969 10.652 2.969a20.74 20.74 0 009.848-2.504L334.68 207.52a20.772 20.772 0 0010.937-18.223 20.763 20.763 0 00-10.808-18.305zm-113.86 63.617v-91.718l84.54 46.257zm0 0"></path>
    <path d="M508.234 91.527l-.023-.234c-.434-4.121-4.75-40.777-22.57-59.422C465.043 9.941 441.69 7.277 430.46 6a135.45 135.45 0 01-2.543-.305l-.895-.093C359.336.68 257.113.008 256.09.004L256 0l-.09.004C254.887.008 152.664.68 84.367 5.602l-.902.093c-.727.098-1.528.188-2.399.29-11.101 1.28-34.203 3.949-54.859 26.671C9.234 51.102 4.328 86.973 3.824 91.004l-.058.523C3.613 93.242 0 134.067 0 175.051v38.312c0 40.985 3.613 81.809 3.766 83.528l.027.257c.434 4.055 4.746 40.04 22.484 58.692 19.368 21.195 43.856 24 57.028 25.508 2.082.238 3.875.441 5.097.656l1.184.164c39.082 3.719 161.617 5.55 166.812 5.625l.157.004.156-.004c1.023-.004 103.242-.676 170.93-5.598l.894-.093c.856-.114 1.817-.215 2.871-.325 11.04-1.172 34.016-3.605 54.387-26.02 16.973-18.448 21.883-54.32 22.383-58.347l.058-.523c.153-1.719 3.77-42.54 3.77-83.524v-38.312c-.004-40.985-3.617-81.805-3.77-83.524zm-26.238 121.836c0 37.934-3.312 77-3.625 80.586-1.273 9.88-6.45 32.574-14.719 41.563-12.75 14.027-25.847 15.418-35.41 16.43a164.16 164.16 0 00-3.195.359c-65.469 4.734-163.832 5.46-168.363 5.488-5.082-.074-125.825-1.922-163.715-5.441-1.942-.317-4.04-.559-6.25-.809-11.215-1.285-26.567-3.043-38.371-16.027l-.278-.297c-8.125-8.465-13.152-29.688-14.43-41.149-.238-2.71-3.636-42.238-3.636-80.703v-38.312c0-37.89 3.305-76.914 3.625-80.574 1.52-11.637 6.793-32.957 14.719-41.575 13.14-14.453 26.996-16.054 36.16-17.113.875-.102 1.691-.195 2.445-.293 66.422-4.758 165.492-5.465 169.047-5.492 3.555.023 102.59.734 168.422 5.492.808.102 1.691.203 2.64.313 9.426 1.074 23.672 2.699 36.747 16.644l.12.129c8.126 8.465 13.153 30.059 14.43 41.75.227 2.559 3.637 42.172 3.637 80.719zm0 0"></path>
  </symbol>
  <symbol xmlns="http://www.w3.org/2000/svg"  viewBox="0 0 512.012 512.012" id="dislike">
    <path d="M498.133 241.585c8.768-8.811 13.867-20.757 13.867-33.579 0-18.496-10.581-34.752-26.325-42.688 3.264-6.528 4.992-13.76 4.992-21.312 0-18.496-10.603-34.773-26.347-42.688 4.864-9.728 6.293-20.928 3.84-32.043-4.779-21.611-25.109-37.269-48.341-37.269H224c-14.827 0-38.72 4.8-56.469 13.931-7.424-20.544-27.136-35.264-50.197-35.264h-64C23.915 10.673 0 34.587 0 64.006v170.667c0 29.419 23.915 53.333 53.333 53.333H160c5.888 0 10.667-4.779 10.667-10.667v-4.075l2.539 1.28 61.461 133.12v72.341c0 3.243 1.472 6.315 3.989 8.341.683.512 16.533 12.992 38.677 12.992 24.683 0 64-39.061 64-85.333 0-29.184-10.453-65.515-16.981-85.333h131.776c28.715 0 53.141-21.248 55.659-48.363 1.386-15.21-3.691-29.823-13.654-40.724zm-22.805 8.597c10.475 6.464 16.32 18.027 15.189 30.187-1.493 16.235-16.597 28.971-34.389 28.971H309.333a10.726 10.726 0 00-8.789 4.608c-1.984 2.901-2.432 6.592-1.173 9.856.192.533 20.629 54.656 20.629 92.203 0 34.944-30.976 64-42.667 64-9.195 0-16.917-3.349-21.333-5.781v-68.885a10.55 10.55 0 00-1.003-4.48l-64-138.667a10.645 10.645 0 00-4.907-5.056l-21.333-10.667c-3.307-1.664-7.253-1.451-10.368.448-3.136 1.963-5.056 5.397-5.056 9.088v10.667h-96c-17.643 0-32-14.357-32-32V64.006c0-17.643 14.357-32 32-32h64c17.643 0 32 14.357 32 32 0 4.309 2.603 8.213 6.592 9.856a10.777 10.777 0 0011.627-2.304C177.621 61.467 206.677 53.339 224 53.339h195.819c13.312 0 24.875 8.619 27.499 20.565 2.112 9.536-.704 18.795-7.723 25.429a10.624 10.624 0 00-2.816 11.136 10.685 10.685 0 008.917 7.232c13.461 1.536 23.637 12.843 23.637 26.304 0 7.339-3.008 14.208-8.405 19.328a10.624 10.624 0 00-2.816 11.136 10.685 10.685 0 008.917 7.232c13.461 1.536 23.637 12.843 23.637 26.304 0 9.941-5.589 18.987-14.613 23.595a10.747 10.747 0 00-5.781 9.088 10.703 10.703 0 005.056 9.494z"></path>
    <path d="M160 53.339c-5.888 0-10.667 4.779-10.667 10.667v192c0 5.888 4.779 10.667 10.667 10.667s10.667-4.779 10.667-10.667v-192c0-5.888-4.779-10.667-10.667-10.667z"></path>
  </symbol>
  <symbol xmlns="http://www.w3.org/2000/svg" viewBox="0 0 24 24" id="facebook">
    <path d="M21.8 0H2.2C1 0 0 1 0 2.2v19.6C0 23 1 24 2.2 24H12V14H9v-3h3V8c0-2.5 1-4 4-4h3v3h-1.3c-.9 0-1.7.8-1.7 1.7V11h4l-.5 3H16v10h5.8c1.2 0 2.2-1 2.2-2.2V2.2C24 1 23 0 21.8 0z"></path>
  </symbol>
  <symbol xmlns="http://www.w3.org/2000/svg"  viewBox="0 0 511 511.9" id="instagram" >
    <path d="M510.95 150.5c-1.2-27.2-5.598-45.898-11.9-62.102-6.5-17.199-16.5-32.597-29.6-45.398-12.802-13-28.302-23.102-45.302-29.5-16.296-6.3-34.898-10.7-62.097-11.898C334.648.3 325.949 0 256.449 0s-78.199.3-105.5 1.5c-27.199 1.2-45.898 5.602-62.097 11.898-17.204 6.5-32.602 16.5-45.403 29.602-13 12.8-23.097 28.3-29.5 45.3-6.3 16.302-10.699 34.9-11.898 62.098C.75 177.801.449 186.5.449 256s.301 78.2 1.5 105.5c1.2 27.2 5.602 45.898 11.903 62.102 6.5 17.199 16.597 32.597 29.597 45.398 12.801 13 28.301 23.102 45.301 29.5 16.3 6.3 34.898 10.7 62.102 11.898 27.296 1.204 36 1.5 105.5 1.5s78.199-.296 105.5-1.5c27.199-1.199 45.898-5.597 62.097-11.898a130.934 130.934 0 0074.903-74.898c6.296-16.301 10.699-34.903 11.898-62.102 1.2-27.3 1.5-36 1.5-105.5s-.102-78.2-1.3-105.5zm-46.098 209c-1.102 25-5.301 38.5-8.801 47.5-8.602 22.3-26.301 40-48.602 48.602-9 3.5-22.597 7.699-47.5 8.796-27 1.204-35.097 1.5-103.398 1.5s-76.5-.296-103.403-1.5c-25-1.097-38.5-5.296-47.5-8.796C94.551 451.5 84.45 445 76.25 436.5c-8.5-8.3-15-18.3-19.102-29.398-3.5-9-7.699-22.602-8.796-47.5-1.204-27-1.5-35.102-1.5-103.403s.296-76.5 1.5-103.398c1.097-25 5.296-38.5 8.796-47.5C61.25 94.199 67.75 84.1 76.352 75.898c8.296-8.5 18.296-15 29.398-19.097 9-3.5 22.602-7.7 47.5-8.801 27-1.2 35.102-1.5 103.398-1.5 68.403 0 76.5.3 103.403 1.5 25 1.102 38.5 5.3 47.5 8.8 11.097 4.098 21.199 10.598 29.398 19.098 8.5 8.301 15 18.301 19.102 29.403 3.5 9 7.699 22.597 8.8 47.5 1.2 27 1.5 35.097 1.5 103.398s-.3 76.301-1.5 103.301zm0 0"></path>
    <path d="M256.45 124.5c-72.598 0-131.5 58.898-131.5 131.5s58.902 131.5 131.5 131.5c72.6 0 131.5-58.898 131.5-131.5s-58.9-131.5-131.5-131.5zm0 216.8c-47.098 0-85.302-38.198-85.302-85.3s38.204-85.3 85.301-85.3c47.102 0 85.301 38.198 85.301 85.3s-38.2 85.3-85.3 85.3zm167.402-222c0 16.954-13.747 30.7-30.704 30.7-16.953 0-30.699-13.746-30.699-30.7 0-16.956 13.746-30.698 30.7-30.698 16.956 0 30.703 13.742 30.703 30.699zm0 0"></path>
  </symbol>
  <symbol xmlns="http://www.w3.org/2000/svg"  viewBox="0 0 512 512" id="like">
    <path d="M512 304c0-12.821-5.099-24.768-13.888-33.579 9.963-10.901 15.04-25.515 13.653-40.725-2.496-27.115-26.923-48.363-55.637-48.363H324.352c6.528-19.819 16.981-56.149 16.981-85.333 0-46.272-39.317-85.333-64-85.333-22.144 0-37.995 12.48-38.656 12.992A10.672 10.672 0 00234.666 32v72.341L173.205 237.44l-2.539 1.301v-4.075c0-5.888-4.779-10.667-10.667-10.667H53.333C23.915 224 0 247.915 0 277.333V448c0 29.419 23.915 53.333 53.333 53.333h64c23.061 0 42.773-14.72 50.197-35.264C185.28 475.2 209.173 480 224 480h195.819c23.232 0 43.563-15.659 48.341-37.248 2.453-11.136 1.024-22.336-3.84-32.064 15.744-7.915 26.347-24.192 26.347-42.688 0-7.552-1.728-14.784-4.992-21.312C501.419 338.752 512 322.496 512 304zm-44.992 26.325a10.719 10.719 0 00-8.917 7.232 10.688 10.688 0 002.816 11.136c5.419 5.099 8.427 11.968 8.427 19.307 0 13.461-10.176 24.768-23.637 26.325a10.719 10.719 0 00-8.917 7.232 10.688 10.688 0 002.816 11.136c7.019 6.613 9.835 15.893 7.723 25.451-2.624 11.904-14.187 20.523-27.499 20.523H224c-17.323 0-46.379-8.128-56.448-18.219-3.051-3.029-7.659-3.925-11.627-2.304a10.667 10.667 0 00-6.592 9.856c0 17.643-14.357 32-32 32h-64c-17.643 0-32-14.357-32-32V277.333c0-17.643 14.357-32 32-32h96V256c0 3.691 1.92 7.125 5.077 9.088a10.902 10.902 0 0010.368.448l21.333-10.667a10.65 10.65 0 004.907-5.056l64-138.667c.64-1.408.981-2.944.981-4.48V37.781c4.438-2.453 12.14-5.781 21.334-5.781C289.024 32 320 61.056 320 96c0 37.547-20.437 91.669-20.629 92.203a10.739 10.739 0 001.173 9.856 10.728 10.728 0 008.789 4.608h146.795c17.792 0 32.896 12.736 34.389 28.992 1.131 12.16-4.715 23.723-15.189 30.187-3.264 2.005-5.205 5.632-5.056 9.493s2.368 7.317 5.781 9.088c9.024 4.587 14.613 13.632 14.613 23.573.001 13.461-10.175 24.768-23.658 26.325z"></path>
    <path d="M160 245.333c-5.888 0-10.667 4.779-10.667 10.667v192c0 5.888 4.779 10.667 10.667 10.667s10.667-4.779 10.667-10.667V256c0-5.888-4.779-10.667-10.667-10.667z"></path>
  </symbol>
  <symbol xmlns="http://www.w3.org/2000/svg" viewBox="0 0 512.005 512.005" id="magnifying-glass">
    <path d="M505.749 475.587l-145.6-145.6c28.203-34.837 45.184-79.104 45.184-127.317C405.333 90.926 314.41.003 202.666.003S0 90.925 0 202.669s90.923 202.667 202.667 202.667c48.213 0 92.48-16.981 127.317-45.184l145.6 145.6c4.16 4.16 9.621 6.251 15.083 6.251s10.923-2.091 15.083-6.251c8.341-8.341 8.341-21.824-.001-30.165zM202.667 362.669c-88.235 0-160-71.765-160-160s71.765-160 160-160 160 71.765 160 160-71.766 160-160 160z"></path>
  </symbol>
  <symbol xmlns="http://www.w3.org/2000/svg" viewBox="0 0 612.002 612.002" id="scroll-to-top">
    <path d="M592.639,358.376L423.706,189.439c-64.904-64.892-170.509-64.892-235.421,0.005L19.363,358.379
			c-25.817,25.817-25.817,67.674,0,93.489c25.817,25.817,67.679,25.819,93.491-0.002l168.92-168.927
			c13.354-13.357,35.092-13.361,48.444-0.005l168.93,168.932c12.91,12.907,29.825,19.365,46.747,19.365
			c16.915,0,33.835-6.455,46.747-19.365C618.456,426.051,618.456,384.193,592.639,358.376z"/>
  </symbol>
  <symbol xmlns="http://www.w3.org/2000/svg" viewBox="0 0 56.7 56.7" id="airbnb" >
    <path d="M50.3075,38.2082c-0.2454-0.5886-0.4908-1.2267-0.7362-1.7662c-0.3924-0.8831-0.785-1.7175-1.1285-2.5024l-0.0491-0.049  c-3.3855-7.3597-7.0164-14.8179-10.8434-22.1775l-0.1472-0.2946c-0.3926-0.7362-0.7854-1.5211-1.1776-2.3061  c-0.4909-0.883-0.9813-1.8156-1.7666-2.6988c-1.5699-1.9625-3.8269-3.0419-6.2311-3.0419c-2.4534,0-4.6614,1.0794-6.2807,2.9438  c-0.7358,0.8834-1.2757,1.8157-1.7662,2.6988c-0.3926,0.7849-0.7853,1.5701-1.1776,2.306l-0.1472,0.2946  c-3.7783,7.3596-7.4583,14.8179-10.8438,22.1775l-0.0491,0.0982c-0.3432,0.7853-0.7358,1.6193-1.1285,2.5023  c-0.245,0.5396-0.4905,1.1285-0.7358,1.7663c-0.6382,1.8157-0.8341,3.5327-0.589,5.2993c0.5399,3.68,2.9932,6.7711,6.3788,8.145  c1.2757,0.5395,2.6003,0.7849,3.9742,0.7849c0.3926,0,0.8835-0.049,1.2757-0.0982c1.6193-0.1963,3.2874-0.7358,4.9067-1.6684  c2.0116-1.1285,3.9254-2.7475,6.0843-5.1027c2.1589,2.3552,4.1214,3.9742,6.0844,5.1027c1.6189,0.9326,3.2873,1.4721,4.9063,1.6684  c0.3927,0.0491,0.8835,0.0982,1.2757,0.0982c1.374,0,2.7479-0.2454,3.9746-0.7849c3.4346-1.3739,5.8389-4.5141,6.3784-8.145  C51.1416,41.741,50.9452,40.024,50.3075,38.2082z M28.1787,40.7597c-2.6497-3.3364-4.3668-6.4765-4.9558-9.1262  c-0.2454-1.1285-0.2945-2.1097-0.1472-2.9929c0.0982-0.7849,0.3926-1.4721,0.7854-2.0607c0.9321-1.3249,2.502-2.1588,4.3177-2.1588  c1.8153,0,3.4347,0.7849,4.3177,2.1588c0.3927,0.5886,0.6872,1.2757,0.7854,2.0607c0.1469,0.8832,0.0978,1.9135-0.1473,2.9929  C32.5455,34.2341,30.8283,37.3742,28.1787,40.7597z M47.756,43.0658c-0.3436,2.5516-2.0607,4.7595-4.4649,5.7408  c-1.1777,0.4908-2.4534,0.6381-3.7291,0.4908c-1.2267-0.1473-2.4534-0.5399-3.7291-1.2757  c-1.7662-0.9813-3.5324-2.5024-5.5934-4.7594c3.2387-3.9746,5.2011-7.605,5.937-10.8434c0.3436-1.5212,0.3926-2.8951,0.2454-4.1709  c-0.1962-1.2267-0.6381-2.3552-1.3248-3.3364c-1.5212-2.208-4.0723-3.4837-6.9183-3.4837c-2.8456,0-5.3972,1.3249-6.9183,3.4837  c-0.6868,0.9813-1.1285,2.1097-1.3249,3.3364c-0.196,1.2758-0.1473,2.6988,0.2454,4.1709  c0.7359,3.2383,2.7479,6.9179,5.9371,10.8924c-2.0116,2.2571-3.8273,3.7782-5.5935,4.7594  c-1.2757,0.7359-2.5024,1.1285-3.7291,1.2758c-1.3249,0.1469-2.6006-0.0491-3.7291-0.4908  c-2.4043-0.9813-4.1213-3.1893-4.4649-5.7408c-0.1472-1.2266-0.049-2.4534,0.4418-3.8273c0.1473-0.4904,0.3923-0.9813,0.6377-1.5698  c0.3435-0.785,0.7362-1.6193,1.1285-2.4534l0.0491-0.0982c3.3854-7.3106,7.0165-14.7688,10.7947-22.0307l0.1473-0.2941  c0.3922-0.7362,0.7849-1.5212,1.1776-2.2571c0.3922-0.7853,0.834-1.5211,1.3735-2.1588C25.3821,7.2481,26.7556,6.61,28.2768,6.61  s2.8952,0.6381,3.9255,1.8156c0.5395,0.6377,0.9813,1.3736,1.374,2.1588c0.3922,0.7359,0.7849,1.5208,1.1775,2.2571l0.1469,0.2941  c3.7291,7.311,7.36,14.7687,10.7456,22.0797v0.0491c0.3923,0.7849,0.7359,1.6684,1.1285,2.4534  c0.2454,0.5885,0.4905,1.0794,0.6377,1.5698C47.8051,40.5635,47.9524,41.7902,47.756,43.0658z"/>
  </symbol>
</svg>